<?xml version="1.0" standalone="no"?><!DOCTYPE svg PUBLIC "-//W3C//DTD SVG 1.1//EN" "http://www.w3.org/Graphics/SVG/1.1/DTD/svg11.dtd">
<svg x="0.0000" y="0.0000" width="146.5790" height="20.1864" viewBox="0.0000 0.0000 146.5790 20.1864" version="1.1" xmlns="http://www.w3.org/2000/svg" shape-rendering="crispEdges">
<title>TBarCode - 11.15.0.16817</title>
<desc>BarCode licensed to MEM:TEC-IT Datenverarbeitung GmbH Internal License</desc>

<g fill="rgb(0%,0%,0%)">
<rect x="0.0000" y="0.0000" width="1.0583" height="20.1864" />
<rect x="1.5875" y="0.0000" width="0.5292" height="20.1864" />
<rect x="3.1750" y="0.0000" width="0.5292" height="20.1864" />
<rect x="5.8208" y="0.0000" width="0.5292" height="20.1864" />
<rect x="7.4083" y="0.0000" width="1.0583" height="20.1864" />
<rect x="10.5833" y="0.0000" width="0.5292" height="20.1864" />
<rect x="11.6417" y="0.0000" width="0.5292" height="20.1864" />
<rect x="13.2292" y="0.0000" width="2.1167" height="20.1864" />
<rect x="15.8750" y="0.0000" width="0.5292" height="20.1864" />
<rect x="17.4625" y="0.0000" width="0.5292" height="20.1864" />
<rect x="19.0500" y="0.0000" width="2.1167" height="20.1864" />
<rect x="21.6958" y="0.0000" width="0.5292" height="20.1864" />
<rect x="23.2833" y="0.0000" width="0.5292" height="20.1864" />
<rect x="24.3416" y="0.0000" width="0.5292" height="20.1864" />
<rect x="25.9291" y="0.0000" width="2.1167" height="20.1864" />
<rect x="29.1041" y="0.0000" width="0.5292" height="20.1864" />
<rect x="30.1625" y="0.0000" width="2.1167" height="20.1864" />
<rect x="33.3375" y="0.0000" width="0.5292" height="20.1864" />
<rect x="34.9250" y="0.0000" width="1.5875" height="20.1864" />
<rect x="37.5708" y="0.0000" width="0.5292" height="20.1864" />
<rect x="39.1583" y="0.0000" width="1.0583" height="20.1864" />
<rect x="40.7458" y="0.0000" width="0.5292" height="20.1864" />
<rect x="41.8041" y="0.0000" width="1.5875" height="20.1864" />
<rect x="44.4499" y="0.0000" width="1.0583" height="20.1864" />
<rect x="46.5666" y="0.0000" width="0.5292" height="20.1864" />
<rect x="47.6249" y="0.0000" width="1.5875" height="20.1864" />
<rect x="50.2708" y="0.0000" width="1.0583" height="20.1864" />
<rect x="52.3874" y="0.0000" width="0.5292" height="20.1864" />
<rect x="53.9749" y="0.0000" width="0.5292" height="20.1864" />
<rect x="56.6208" y="0.0000" width="1.0583" height="20.1864" />
<rect x="58.2083" y="0.0000" width="0.5292" height="20.1864" />
<rect x="60.8541" y="0.0000" width="1.0583" height="20.1864" />
<rect x="62.4416" y="0.0000" width="0.5292" height="20.1864" />
<rect x="64.0291" y="0.0000" width="0.5292" height="20.1864" />
<rect x="65.6166" y="0.0000" width="2.1167" height="20.1864" />
<rect x="68.2624" y="0.0000" width="0.5292" height="20.1864" />
<rect x="69.8499" y="0.0000" width="1.0583" height="20.1864" />
<rect x="71.9666" y="0.0000" width="0.5292" height="20.1864" />
<rect x="73.0249" y="0.0000" width="0.5292" height="20.1864" />
<rect x="75.6707" y="0.0000" width="1.0583" height="20.1864" />
<rect x="77.2582" y="0.0000" width="1.0583" height="20.1864" />
<rect x="78.8457" y="0.0000" width="2.1167" height="20.1864" />
<rect x="81.4916" y="0.0000" width="0.5292" height="20.1864" />
<rect x="83.0791" y="0.0000" width="1.0583" height="20.1864" />
<rect x="85.1957" y="0.0000" width="1.5875" height="20.1864" />
<rect x="87.3124" y="0.0000" width="2.1167" height="20.1864" />
<rect x="90.4874" y="0.0000" width="0.5292" height="20.1864" />
<rect x="91.5457" y="0.0000" width="0.5292" height="20.1864" />
<rect x="93.1332" y="0.0000" width="0.5292" height="20.1864" />
<rect x="94.1916" y="0.0000" width="2.1167" height="20.1864" />
<rect x="97.3666" y="0.0000" width="0.5292" height="20.1864" />
<rect x="98.9541" y="0.0000" width="0.5292" height="20.1864" />
<rect x="100.0124" y="0.0000" width="1.5875" height="20.1864" />
<rect x="102.6582" y="0.0000" width="1.0583" height="20.1864" />
<rect x="104.7749" y="0.0000" width="1.0583" height="20.1864" />
<rect x="106.8915" y="0.0000" width="0.5292" height="20.1864" />
<rect x="107.9499" y="0.0000" width="1.5875" height="20.1864" />
<rect x="110.5957" y="0.0000" width="1.0583" height="20.1864" />
<rect x="112.1832" y="0.0000" width="1.5875" height="20.1864" />
<rect x="114.8290" y="0.0000" width="0.5292" height="20.1864" />
<rect x="116.4165" y="0.0000" width="1.5875" height="20.1864" />
<rect x="118.5332" y="0.0000" width="0.5292" height="20.1864" />
<rect x="119.5915" y="0.0000" width="1.0583" height="20.1864" />
<rect x="122.2374" y="0.0000" width="1.0583" height="20.1864" />
<rect x="125.4124" y="0.0000" width="0.5292" height="20.1864" />
<rect x="126.4707" y="0.0000" width="0.5292" height="20.1864" />
<rect x="128.0582" y="0.0000" width="0.5292" height="20.1864" />
<rect x="129.6457" y="0.0000" width="2.1167" height="20.1864" />
<rect x="132.8207" y="0.0000" width="0.5292" height="20.1864" />
<rect x="133.8790" y="0.0000" width="1.0583" height="20.1864" />
<rect x="135.9957" y="0.0000" width="1.5875" height="20.1864" />
<rect x="138.1123" y="0.0000" width="0.5292" height="20.1864" />
<rect x="139.6998" y="0.0000" width="1.0583" height="20.1864" />
<rect x="142.3457" y="0.0000" width="1.5875" height="20.1864" />
<rect x="144.4623" y="0.0000" width="0.5292" height="20.1864" />
<rect x="145.5207" y="0.0000" width="1.0583" height="20.1864" />
</g>

</svg>
