<?xml version="1.0" standalone="no"?><!DOCTYPE svg PUBLIC "-//W3C//DTD SVG 1.1//EN" "http://www.w3.org/Graphics/SVG/1.1/DTD/svg11.dtd">
<svg x="0.0000mm" y="0.0000mm" width="21.1670mm" height="21.1670mm" viewBox="0.0000 0.0000 21.1670 21.1670" version="1.1" xmlns="http://www.w3.org/2000/svg" shape-rendering="crispEdges">
<title>TBarCode - 11.15.0.16817</title>
<desc>BarCode licensed to MEM:TEC-IT Datenverarbeitung GmbH Internal License</desc>
<g fill="rgb(0%,0%,0%)">
</g>
<g fill="rgb(100%,100%,100%)">
<rect x="0.0000" y="0.0000" width="21.1670" height="21.1670" />
</g>
<g fill="rgb(0%,0%,0%)">
</g>
<g fill="rgb(0%,0%,0%)">
<rect x="0.0000" y="0.0000" width="1.0584" height="1.0584" />
<rect x="2.1167" y="0.0000" width="1.0584" height="1.0584" />
<rect x="4.2334" y="0.0000" width="1.0583" height="1.0584" />
<rect x="6.3501" y="0.0000" width="1.0583" height="1.0584" />
<rect x="8.4668" y="0.0000" width="1.0584" height="1.0584" />
<rect x="10.5835" y="0.0000" width="1.0584" height="1.0584" />
<rect x="12.7002" y="0.0000" width="1.0584" height="1.0584" />
<rect x="14.8169" y="0.0000" width="1.0584" height="1.0584" />
<rect x="16.9336" y="0.0000" width="1.0584" height="1.0584" />
<rect x="19.0503" y="0.0000" width="1.0584" height="1.0584" />
</g>
<g fill="rgb(0%,0%,0%)">
<rect x="0.0000" y="1.0584" width="1.0584" height="1.0584" />
<rect x="1.0584" y="1.0584" width="1.0584" height="1.0584" />
<rect x="4.2334" y="1.0584" width="1.0583" height="1.0584" />
<rect x="6.3501" y="1.0584" width="1.0583" height="1.0584" />
<rect x="7.4085" y="1.0584" width="1.0584" height="1.0584" />
<rect x="8.4668" y="1.0584" width="1.0584" height="1.0584" />
<rect x="9.5252" y="1.0584" width="1.0584" height="1.0584" />
<rect x="11.6419" y="1.0584" width="1.0584" height="1.0584" />
<rect x="12.7002" y="1.0584" width="1.0584" height="1.0584" />
<rect x="17.9920" y="1.0584" width="1.0584" height="1.0584" />
<rect x="19.0503" y="1.0584" width="1.0584" height="1.0584" />
<rect x="20.1087" y="1.0584" width="1.0584" height="1.0584" />
</g>
<g fill="rgb(0%,0%,0%)">
<rect x="0.0000" y="2.1167" width="1.0584" height="1.0584" />
<rect x="3.1751" y="2.1167" width="1.0583" height="1.0584" />
<rect x="5.2918" y="2.1167" width="1.0583" height="1.0584" />
<rect x="7.4085" y="2.1167" width="1.0584" height="1.0584" />
<rect x="9.5252" y="2.1167" width="1.0584" height="1.0584" />
<rect x="10.5835" y="2.1167" width="1.0584" height="1.0584" />
<rect x="13.7586" y="2.1167" width="1.0584" height="1.0584" />
<rect x="15.8753" y="2.1167" width="1.0583" height="1.0584" />
<rect x="17.9920" y="2.1167" width="1.0584" height="1.0584" />
</g>
<g fill="rgb(0%,0%,0%)">
<rect x="0.0000" y="3.1751" width="1.0584" height="1.0583" />
<rect x="7.4085" y="3.1751" width="1.0584" height="1.0583" />
<rect x="8.4668" y="3.1751" width="1.0584" height="1.0583" />
<rect x="9.5252" y="3.1751" width="1.0584" height="1.0583" />
<rect x="10.5835" y="3.1751" width="1.0584" height="1.0583" />
<rect x="13.7586" y="3.1751" width="1.0584" height="1.0583" />
<rect x="14.8169" y="3.1751" width="1.0584" height="1.0583" />
<rect x="17.9920" y="3.1751" width="1.0584" height="1.0583" />
<rect x="19.0503" y="3.1751" width="1.0584" height="1.0583" />
<rect x="20.1087" y="3.1751" width="1.0584" height="1.0583" />
</g>
<g fill="rgb(0%,0%,0%)">
<rect x="0.0000" y="4.2334" width="1.0584" height="1.0583" />
<rect x="1.0584" y="4.2334" width="1.0584" height="1.0583" />
<rect x="3.1751" y="4.2334" width="1.0583" height="1.0583" />
<rect x="5.2918" y="4.2334" width="1.0583" height="1.0583" />
<rect x="7.4085" y="4.2334" width="1.0584" height="1.0583" />
<rect x="9.5252" y="4.2334" width="1.0584" height="1.0583" />
<rect x="10.5835" y="4.2334" width="1.0584" height="1.0583" />
<rect x="15.8753" y="4.2334" width="1.0583" height="1.0583" />
<rect x="16.9336" y="4.2334" width="1.0584" height="1.0583" />
<rect x="17.9920" y="4.2334" width="1.0584" height="1.0583" />
<rect x="19.0503" y="4.2334" width="1.0584" height="1.0583" />
</g>
<g fill="rgb(0%,0%,0%)">
<rect x="0.0000" y="5.2918" width="1.0584" height="1.0583" />
<rect x="1.0584" y="5.2918" width="1.0584" height="1.0583" />
<rect x="3.1751" y="5.2918" width="1.0583" height="1.0583" />
<rect x="4.2334" y="5.2918" width="1.0583" height="1.0583" />
<rect x="5.2918" y="5.2918" width="1.0583" height="1.0583" />
<rect x="6.3501" y="5.2918" width="1.0583" height="1.0583" />
<rect x="7.4085" y="5.2918" width="1.0584" height="1.0583" />
<rect x="9.5252" y="5.2918" width="1.0584" height="1.0583" />
<rect x="10.5835" y="5.2918" width="1.0584" height="1.0583" />
<rect x="16.9336" y="5.2918" width="1.0584" height="1.0583" />
<rect x="17.9920" y="5.2918" width="1.0584" height="1.0583" />
<rect x="19.0503" y="5.2918" width="1.0584" height="1.0583" />
<rect x="20.1087" y="5.2918" width="1.0584" height="1.0583" />
</g>
<g fill="rgb(0%,0%,0%)">
<rect x="0.0000" y="6.3501" width="1.0584" height="1.0583" />
<rect x="1.0584" y="6.3501" width="1.0584" height="1.0583" />
<rect x="2.1167" y="6.3501" width="1.0584" height="1.0583" />
<rect x="4.2334" y="6.3501" width="1.0583" height="1.0583" />
<rect x="11.6419" y="6.3501" width="1.0584" height="1.0583" />
<rect x="14.8169" y="6.3501" width="1.0584" height="1.0583" />
<rect x="16.9336" y="6.3501" width="1.0584" height="1.0583" />
<rect x="19.0503" y="6.3501" width="1.0584" height="1.0583" />
</g>
<g fill="rgb(0%,0%,0%)">
<rect x="0.0000" y="7.4085" width="1.0584" height="1.0584" />
<rect x="1.0584" y="7.4085" width="1.0584" height="1.0584" />
<rect x="3.1751" y="7.4085" width="1.0583" height="1.0584" />
<rect x="6.3501" y="7.4085" width="1.0583" height="1.0584" />
<rect x="9.5252" y="7.4085" width="1.0584" height="1.0584" />
<rect x="12.7002" y="7.4085" width="1.0584" height="1.0584" />
<rect x="17.9920" y="7.4085" width="1.0584" height="1.0584" />
<rect x="19.0503" y="7.4085" width="1.0584" height="1.0584" />
<rect x="20.1087" y="7.4085" width="1.0584" height="1.0584" />
</g>
<g fill="rgb(0%,0%,0%)">
<rect x="0.0000" y="8.4668" width="1.0584" height="1.0584" />
<rect x="1.0584" y="8.4668" width="1.0584" height="1.0584" />
<rect x="2.1167" y="8.4668" width="1.0584" height="1.0584" />
<rect x="5.2918" y="8.4668" width="1.0583" height="1.0584" />
<rect x="11.6419" y="8.4668" width="1.0584" height="1.0584" />
<rect x="12.7002" y="8.4668" width="1.0584" height="1.0584" />
<rect x="14.8169" y="8.4668" width="1.0584" height="1.0584" />
<rect x="16.9336" y="8.4668" width="1.0584" height="1.0584" />
<rect x="17.9920" y="8.4668" width="1.0584" height="1.0584" />
</g>
<g fill="rgb(0%,0%,0%)">
<rect x="0.0000" y="9.5252" width="1.0584" height="1.0584" />
<rect x="1.0584" y="9.5252" width="1.0584" height="1.0584" />
<rect x="3.1751" y="9.5252" width="1.0583" height="1.0584" />
<rect x="4.2334" y="9.5252" width="1.0583" height="1.0584" />
<rect x="8.4668" y="9.5252" width="1.0584" height="1.0584" />
<rect x="9.5252" y="9.5252" width="1.0584" height="1.0584" />
<rect x="12.7002" y="9.5252" width="1.0584" height="1.0584" />
<rect x="20.1087" y="9.5252" width="1.0584" height="1.0584" />
</g>
<g fill="rgb(0%,0%,0%)">
<rect x="0.0000" y="10.5835" width="1.0584" height="1.0584" />
<rect x="4.2334" y="10.5835" width="1.0583" height="1.0584" />
<rect x="5.2918" y="10.5835" width="1.0583" height="1.0584" />
<rect x="6.3501" y="10.5835" width="1.0583" height="1.0584" />
<rect x="9.5252" y="10.5835" width="1.0584" height="1.0584" />
<rect x="12.7002" y="10.5835" width="1.0584" height="1.0584" />
<rect x="13.7586" y="10.5835" width="1.0584" height="1.0584" />
<rect x="15.8753" y="10.5835" width="1.0583" height="1.0584" />
</g>
<g fill="rgb(0%,0%,0%)">
<rect x="0.0000" y="11.6419" width="1.0584" height="1.0584" />
<rect x="4.2334" y="11.6419" width="1.0583" height="1.0584" />
<rect x="5.2918" y="11.6419" width="1.0583" height="1.0584" />
<rect x="6.3501" y="11.6419" width="1.0583" height="1.0584" />
<rect x="7.4085" y="11.6419" width="1.0584" height="1.0584" />
<rect x="8.4668" y="11.6419" width="1.0584" height="1.0584" />
<rect x="13.7586" y="11.6419" width="1.0584" height="1.0584" />
<rect x="14.8169" y="11.6419" width="1.0584" height="1.0584" />
<rect x="15.8753" y="11.6419" width="1.0583" height="1.0584" />
<rect x="20.1087" y="11.6419" width="1.0584" height="1.0584" />
</g>
<g fill="rgb(0%,0%,0%)">
<rect x="0.0000" y="12.7002" width="1.0584" height="1.0584" />
<rect x="1.0584" y="12.7002" width="1.0584" height="1.0584" />
<rect x="3.1751" y="12.7002" width="1.0583" height="1.0584" />
<rect x="4.2334" y="12.7002" width="1.0583" height="1.0584" />
<rect x="5.2918" y="12.7002" width="1.0583" height="1.0584" />
<rect x="8.4668" y="12.7002" width="1.0584" height="1.0584" />
<rect x="10.5835" y="12.7002" width="1.0584" height="1.0584" />
<rect x="12.7002" y="12.7002" width="1.0584" height="1.0584" />
<rect x="13.7586" y="12.7002" width="1.0584" height="1.0584" />
<rect x="17.9920" y="12.7002" width="1.0584" height="1.0584" />
<rect x="19.0503" y="12.7002" width="1.0584" height="1.0584" />
</g>
<g fill="rgb(0%,0%,0%)">
<rect x="0.0000" y="13.7586" width="1.0584" height="1.0584" />
<rect x="2.1167" y="13.7586" width="1.0584" height="1.0584" />
<rect x="3.1751" y="13.7586" width="1.0583" height="1.0584" />
<rect x="8.4668" y="13.7586" width="1.0584" height="1.0584" />
<rect x="13.7586" y="13.7586" width="1.0584" height="1.0584" />
<rect x="20.1087" y="13.7586" width="1.0584" height="1.0584" />
</g>
<g fill="rgb(0%,0%,0%)">
<rect x="0.0000" y="14.8169" width="1.0584" height="1.0584" />
<rect x="2.1167" y="14.8169" width="1.0584" height="1.0584" />
<rect x="3.1751" y="14.8169" width="1.0583" height="1.0584" />
<rect x="5.2918" y="14.8169" width="1.0583" height="1.0584" />
<rect x="7.4085" y="14.8169" width="1.0584" height="1.0584" />
<rect x="11.6419" y="14.8169" width="1.0584" height="1.0584" />
<rect x="12.7002" y="14.8169" width="1.0584" height="1.0584" />
<rect x="14.8169" y="14.8169" width="1.0584" height="1.0584" />
<rect x="15.8753" y="14.8169" width="1.0583" height="1.0584" />
<rect x="16.9336" y="14.8169" width="1.0584" height="1.0584" />
<rect x="17.9920" y="14.8169" width="1.0584" height="1.0584" />
</g>
<g fill="rgb(0%,0%,0%)">
<rect x="0.0000" y="15.8753" width="1.0584" height="1.0583" />
<rect x="3.1751" y="15.8753" width="1.0583" height="1.0583" />
<rect x="4.2334" y="15.8753" width="1.0583" height="1.0583" />
<rect x="5.2918" y="15.8753" width="1.0583" height="1.0583" />
<rect x="10.5835" y="15.8753" width="1.0584" height="1.0583" />
<rect x="11.6419" y="15.8753" width="1.0584" height="1.0583" />
<rect x="12.7002" y="15.8753" width="1.0584" height="1.0583" />
<rect x="13.7586" y="15.8753" width="1.0584" height="1.0583" />
<rect x="14.8169" y="15.8753" width="1.0584" height="1.0583" />
<rect x="16.9336" y="15.8753" width="1.0584" height="1.0583" />
<rect x="17.9920" y="15.8753" width="1.0584" height="1.0583" />
<rect x="19.0503" y="15.8753" width="1.0584" height="1.0583" />
<rect x="20.1087" y="15.8753" width="1.0584" height="1.0583" />
</g>
<g fill="rgb(0%,0%,0%)">
<rect x="0.0000" y="16.9336" width="1.0584" height="1.0584" />
<rect x="2.1167" y="16.9336" width="1.0584" height="1.0584" />
<rect x="3.1751" y="16.9336" width="1.0583" height="1.0584" />
<rect x="4.2334" y="16.9336" width="1.0583" height="1.0584" />
<rect x="6.3501" y="16.9336" width="1.0583" height="1.0584" />
<rect x="7.4085" y="16.9336" width="1.0584" height="1.0584" />
<rect x="8.4668" y="16.9336" width="1.0584" height="1.0584" />
<rect x="9.5252" y="16.9336" width="1.0584" height="1.0584" />
<rect x="11.6419" y="16.9336" width="1.0584" height="1.0584" />
<rect x="13.7586" y="16.9336" width="1.0584" height="1.0584" />
<rect x="17.9920" y="16.9336" width="1.0584" height="1.0584" />
<rect x="19.0503" y="16.9336" width="1.0584" height="1.0584" />
</g>
<g fill="rgb(0%,0%,0%)">
<rect x="0.0000" y="17.9920" width="1.0584" height="1.0584" />
<rect x="1.0584" y="17.9920" width="1.0584" height="1.0584" />
<rect x="9.5252" y="17.9920" width="1.0584" height="1.0584" />
<rect x="10.5835" y="17.9920" width="1.0584" height="1.0584" />
<rect x="11.6419" y="17.9920" width="1.0584" height="1.0584" />
<rect x="13.7586" y="17.9920" width="1.0584" height="1.0584" />
<rect x="14.8169" y="17.9920" width="1.0584" height="1.0584" />
<rect x="17.9920" y="17.9920" width="1.0584" height="1.0584" />
<rect x="20.1087" y="17.9920" width="1.0584" height="1.0584" />
</g>
<g fill="rgb(0%,0%,0%)">
<rect x="0.0000" y="19.0503" width="1.0584" height="1.0584" />
<rect x="3.1751" y="19.0503" width="1.0583" height="1.0584" />
<rect x="4.2334" y="19.0503" width="1.0583" height="1.0584" />
<rect x="6.3501" y="19.0503" width="1.0583" height="1.0584" />
<rect x="9.5252" y="19.0503" width="1.0584" height="1.0584" />
<rect x="14.8169" y="19.0503" width="1.0584" height="1.0584" />
<rect x="15.8753" y="19.0503" width="1.0583" height="1.0584" />
<rect x="16.9336" y="19.0503" width="1.0584" height="1.0584" />
<rect x="19.0503" y="19.0503" width="1.0584" height="1.0584" />
</g>
<g fill="rgb(0%,0%,0%)">
<rect x="0.0000" y="20.1087" width="1.0584" height="1.0584" />
<rect x="1.0584" y="20.1087" width="1.0584" height="1.0584" />
<rect x="2.1167" y="20.1087" width="1.0584" height="1.0584" />
<rect x="3.1751" y="20.1087" width="1.0583" height="1.0584" />
<rect x="4.2334" y="20.1087" width="1.0583" height="1.0584" />
<rect x="5.2918" y="20.1087" width="1.0583" height="1.0584" />
<rect x="6.3501" y="20.1087" width="1.0583" height="1.0584" />
<rect x="7.4085" y="20.1087" width="1.0584" height="1.0584" />
<rect x="8.4668" y="20.1087" width="1.0584" height="1.0584" />
<rect x="9.5252" y="20.1087" width="1.0584" height="1.0584" />
<rect x="10.5835" y="20.1087" width="1.0584" height="1.0584" />
<rect x="11.6419" y="20.1087" width="1.0584" height="1.0584" />
<rect x="12.7002" y="20.1087" width="1.0584" height="1.0584" />
<rect x="13.7586" y="20.1087" width="1.0584" height="1.0584" />
<rect x="14.8169" y="20.1087" width="1.0584" height="1.0584" />
<rect x="15.8753" y="20.1087" width="1.0583" height="1.0584" />
<rect x="16.9336" y="20.1087" width="1.0584" height="1.0584" />
<rect x="17.9920" y="20.1087" width="1.0584" height="1.0584" />
<rect x="19.0503" y="20.1087" width="1.0584" height="1.0584" />
<rect x="20.1087" y="20.1087" width="1.0584" height="1.0584" />
</g>
</svg>
